HIERARCHY
ROOT Hips
{
	OFFSET 0.000000 0.000000 0.000000 
	CHANNELS 6 Xposition Yposition Zposition Zrotation Yrotation Xrotation
	JOINT LeftUpLeg
	{
		OFFSET 1.363060 -1.794630 0.839290 
		CHANNELS 3 Zrotation Yrotation Xrotation
		JOINT LeftLeg
		{
			OFFSET 2.448110 -6.726130 0.000000 
			CHANNELS 3 Zrotation Yrotation Xrotation
			JOINT LeftFoot
			{
				OFFSET 2.562200 -7.039590 0.000000 
				CHANNELS 3 Zrotation Yrotation Xrotation
				JOINT LeftToeBase
				{
					OFFSET 0.157640 -0.433110 2.322550 
					CHANNELS 3 Zrotation Yrotation Xrotation
					End Site
					{
						OFFSET 0.000000 0.000000 0.000000 
					}
				}
			}
		}
	}
	JOINT RightUpLeg
	{
		OFFSET -1.305520 -1.794630 0.839290 
		CHANNELS 3 Zrotation Yrotation Xrotation
		JOINT RightLeg
		{
			OFFSET -2.542530 -6.985550 0.000000 
			CHANNELS 3 Zrotation Yrotation Xrotation
			JOINT RightFoot
			{
				OFFSET -2.568260 -7.056230 0.000000 
				CHANNELS 3 Zrotation Yrotation Xrotation
				JOINT RightToeBase
				{
					OFFSET -0.164730 -0.452590 2.363150 
					CHANNELS 3 Zrotation Yrotation Xrotation
					End Site
					{
						OFFSET 0.000000 0.000000 0.000000 
					}
				}
			}
		}
	}
	JOINT Spine
	{
		OFFSET 0.028270 2.035590 -0.193380 
		CHANNELS 3 Zrotation Yrotation Xrotation
		JOINT Spine1
		{
			OFFSET 0.056720 2.048850 -0.042750 
			CHANNELS 3 Zrotation Yrotation Xrotation
			JOINT Neck1
			{
				OFFSET -0.054170 1.746240 0.172020 
				CHANNELS 3 Zrotation Yrotation Xrotation
				JOINT Head
				{
					OFFSET 0.104070 1.761360 -0.123970 
					CHANNELS 3 Zrotation Yrotation Xrotation
					End Site
					{
						OFFSET 0.000000 0.000000 0.000000 
					}
				}
			}
			JOINT LeftArm
			{
				OFFSET 3.362410 1.200890 -0.311210 
				CHANNELS 3 Zrotation Yrotation Xrotation
				JOINT LeftForeArm
				{
					OFFSET 4.983000 -0.000000 -0.000000 
					CHANNELS 3 Zrotation Yrotation Xrotation
					JOINT LeftHand
					{
						OFFSET 3.483560 -0.000000 -0.000000 
						CHANNELS 3 Zrotation Yrotation Xrotation
						JOINT LeftHandIndex1
						{
							OFFSET 0.715260 -0.000000 -0.000000 
							CHANNELS 3 Zrotation Yrotation Xrotation
							End Site
							{
								OFFSET 0.000000 0.000000 0.000000 
							}
						}
					}
				}
			}
			JOINT RightArm
			{
				OFFSET -3.136600 1.374050 -0.404650 
				CHANNELS 3 Zrotation Yrotation Xrotation
				JOINT RightForeArm
				{
					OFFSET -5.241900 -0.000000 -0.000000 
					CHANNELS 3 Zrotation Yrotation Xrotation
					JOINT RightHand
					{
						OFFSET -3.444170 -0.000000 -0.000000 
						CHANNELS 3 Zrotation Yrotation Xrotation
						JOINT RightHandIndex1
						{
							OFFSET -0.622530 -0.000000 -0.000000 
							CHANNELS 3 Zrotation Yrotation Xrotation
							End Site
							{
								OFFSET 0.000000 0.000000 0.000000 
							}
						}
					}
				}
			}
		}
	}
}
MOTION
Frames: 12
Frame Time: 0.041667
-30.518436 17.893761 -2.907895 -50.247654 88.650899 -46.080197 -3.471108 6.190953 -15.979704 2.221781 11.993058 36.407187 5.723352 -9.660688 8.143401 0.803700 -5.721700 -15.979000 6.480005 8.531836 -15.228600 1.187076 -8.420727 23.062055 1.526854 -7.440434 5.520391 -1.338000 7.324000 -20.678800 4.475771 0.594054 3.366338 0.705278 0.791040 -4.905033 -11.593686 2.045891 -14.029222 -5.880600 1.142700 -4.498700 -70.289585 12.752467 35.871720 39.311715 -45.685281 -20.662227 0.645488 -1.486069 1.232071 -7.125000 0.000000 0.000000 77.222683 -13.436696 16.978730 -75.193560 54.525588 -48.184512 -0.016383 -0.505773 7.436452 7.125000 0.000000 0.000000 
-30.510128 17.925148 -2.878149 -73.137379 88.493625 -68.915741 -2.722082 5.316462 -16.307352 2.140616 12.028417 36.132671 5.809864 -9.724859 8.439841 0.767500 -5.594300 -15.611700 6.949491 8.388890 -14.766398 1.323569 -8.086604 22.300001 1.808134 -8.155863 5.660357 -1.311800 7.255000 -20.473000 4.668970 0.667326 3.309197 0.657727 0.861292 -4.966886 -11.916921 2.039154 -13.804986 -6.007500 1.148000 -4.409500 -70.773181 12.787866 36.147881 38.472725 -45.263281 -20.043166 0.673901 -1.517816 1.596363 -7.125000 0.000000 0.000000 77.716816 -13.728395 16.682171 -76.871890 54.693119 -49.753544 -0.011576 -0.482796 7.400588 7.125000 0.000000 0.000000 
-30.499153 17.955099 -2.850558 -90.081873 88.109321 -85.841362 -2.000425 4.464725 -16.508827 2.027171 11.974453 35.640671 5.799014 -9.459331 8.566808 0.754600 -5.548200 -15.478900 7.391481 8.380555 -14.254821 1.461546 -7.776778 21.530530 2.116490 -8.943099 5.734571 -1.282800 7.177400 -20.242000 4.847564 0.756885 3.266413 0.630629 0.930277 -4.995522 -12.191501 2.035415 -13.545727 -6.121800 1.149500 -4.311300 -71.198013 12.872537 36.425436 37.712377 -44.881447 -19.509149 0.707760 -1.546043 1.881357 -7.125000 0.000000 0.000000 77.987072 -14.011736 16.611189 -78.820615 54.861685 -51.587558 -0.006278 -0.452101 7.427637 7.125000 0.000000 0.000000 
-30.485921 17.983100 -2.826043 -100.406419 87.692373 -96.171676 -1.356012 3.656605 -16.595112 1.879597 11.839004 34.945850 5.671596 -8.843131 8.562543 0.758900 -5.563400 -15.522700 7.759671 8.497116 -13.711634 1.594263 -7.490877 20.773101 2.432189 -9.755266 5.765316 -1.254000 7.099300 -20.010000 4.985895 0.857855 3.231669 0.611701 0.993599 -4.999999 -12.409030 2.039663 -13.229754 -6.218900 1.148900 -4.194900 -71.539506 13.012052 36.720197 37.023574 -44.536756 -19.047380 0.743445 -1.567427 2.064177 -7.125000 0.000000 0.000000 78.038658 -14.271203 16.752857 -81.025299 55.021406 -53.675819 -0.000489 -0.414397 7.529338 7.125000 0.000000 0.000000 
-30.470125 18.009872 -2.804503 -106.670900 87.351395 -102.471431 -0.819009 2.906813 -16.578851 1.695396 11.634137 34.066105 5.411331 -7.879479 8.495920 0.765800 -5.588300 -15.594600 8.027597 8.722835 -13.137653 1.715019 -7.226984 20.050453 2.743202 -10.558937 5.757495 -1.225700 7.021800 -19.780000 5.068298 0.974470 3.206094 0.596042 1.058387 -4.982754 -12.553364 2.055952 -12.842564 -6.290000 1.148000 -4.054100 -71.780823 13.202456 37.051920 36.397282 -44.223626 -18.642098 0.778042 -1.581034 2.139717 -7.125000 0.000000 0.000000 77.875601 -14.487803 17.071900 -83.480551 55.163328 -56.015281 0.005921 -0.369779 7.703744 7.125000 0.000000 0.000000 
-30.451970 18.035309 -2.786040 -110.736618 87.127244 -106.599711 -0.402337 2.213823 -16.470074 1.477502 11.369896 33.027362 5.010318 -6.597430 8.406067 0.772200 -5.611100 -15.660200 8.184468 9.031610 -12.543771 1.820377 -6.986862 19.379719 3.041132 -11.329834 5.716105 -1.198400 6.945900 -19.555200 5.088843 1.109450 3.196493 0.581210 1.129082 -4.930609 -12.625654 2.082707 -12.380473 -6.334600 1.146400 -3.887200 -71.907475 13.429894 37.449802 35.832983 -43.940767 -18.284237 0.809723 -1.587596 2.118871 -7.125000 0.000000 0.000000 77.497549 -14.632505 17.519619 -86.170466 55.277896 -58.592032 0.013236 -0.318658 7.940370 7.125000 0.000000 0.000000 
-30.431251 18.059208 -2.770347 -113.713996 87.023091 -109.670385 -0.097990 1.554819 -16.267412 1.231673 11.055075 31.858763 4.484660 -5.080737 8.316536 0.776300 -5.625700 -15.702100 8.235327 9.394751 -11.937081 1.909361 -6.772043 18.771467 3.320759 -12.051737 5.646177 -1.171100 6.869200 -19.328500 5.043173 1.256678 3.198881 0.555927 1.204200 -4.852687 -12.626230 2.118795 -11.844930 -6.352300 1.144700 -3.696300 -71.906313 13.694841 37.933151 35.325458 -43.685031 -17.963729 0.837402 -1.589354 2.023934 -7.125000 0.000000 0.000000 76.906918 -14.689274 18.059088 -89.071775 55.355301 -61.379383 0.021248 -0.262044 8.227510 7.125000 0.000000 0.000000 
-30.408377 18.080953 -2.757218 -116.068745 87.014258 -112.146194 0.126036 0.888921 -15.971066 0.965031 10.698795 30.592056 3.881522 -3.466730 8.240055 0.773000 -5.613800 -15.667800 8.207122 9.790669 -11.328953 1.983131 -6.584214 18.232562 3.578405 -12.714150 5.552860 -1.143000 6.789100 -19.092000 4.937690 1.415077 3.209711 0.511219 1.283601 -4.752227 -12.555064 2.167324 -11.253472 -6.343000 1.145800 -3.489200 -71.772288 13.996196 38.514129 34.875110 -43.456347 -17.675397 0.859934 -1.589771 1.877906 -7.125000 0.000000 0.000000 76.100486 -14.636541 18.651985 -92.150895 55.384814 -64.337350 0.029448 -0.201237 8.538545 7.125000 0.000000 0.000000 
-30.383555 18.099929 -2.746243 -118.049609 87.070610 -114.278058 0.297028 0.194561 -15.589268 0.687297 10.312422 29.263246 3.249828 -1.871081 8.158160 0.771400 -5.608000 -15.651200 8.131198 10.195459 -10.725707 2.043606 -6.423352 17.766174 3.809574 -13.304983 5.436907 -1.113500 6.703700 -18.840600 4.772728 1.578240 3.215659 0.424881 1.363904 -4.654097 -12.404565 2.229407 -10.611464 -6.304400 1.151200 -3.270800 -71.495724 14.355475 39.189496 34.487739 -43.261770 -17.424305 0.877408 -1.591013 1.684725 -7.125000 0.000000 0.000000 75.084729 -14.467140 19.279497 -95.370131 55.353796 -67.416610 0.036706 -0.138191 8.845593 7.125000 0.000000 0.000000 
-30.357399 18.115417 -2.737422 -119.730081 87.155153 -116.138209 0.448740 -0.547841 -15.135395 0.408636 9.908040 27.909378 2.620133 -0.351407 8.085864 0.769100 -5.600100 -15.628500 8.044390 10.594697 -10.128915 2.093690 -6.287513 17.369641 4.013817 -13.823430 5.293509 -1.084200 6.617800 -18.588000 4.564852 1.746119 3.217721 0.301269 1.445530 -4.553518 -12.182066 2.299944 -9.945268 -6.240300 1.160200 -3.052400 -71.087709 14.763266 39.947727 34.163433 -43.102742 -17.210604 0.889901 -1.594783 1.445036 -7.125000 0.000000 0.000000 73.845913 -14.157435 19.912607 -98.674813 55.248898 -70.554256 0.041573 -0.073946 9.127343 7.125000 0.000000 0.000000 
-30.330115 18.126700 -2.730242 -121.106858 87.239820 -117.728134 0.605635 -1.360273 -14.614682 0.138208 9.498829 26.569448 2.028326 1.027170 8.004251 0.767000 -5.592400 -15.606200 7.974946 10.971193 -9.537625 2.136093 -6.173896 17.038194 4.188670 -14.263837 5.120313 -1.056200 6.534500 -18.343400 4.325006 1.915656 3.210377 0.139651 1.527422 -4.461277 -11.890654 2.374036 -9.263933 -6.152900 1.171500 -2.839700 -70.563192 15.220313 40.761846 33.900452 -42.980371 -17.035594 0.897812 -1.601078 1.150626 -7.125000 0.000000 0.000000 72.379589 -13.700999 20.535394 -101.995141 55.058857 -73.674680 0.042297 -0.009724 9.347382 7.125000 0.000000 0.000000 
-30.302114 18.133572 -2.724703 -122.104297 87.296483 -118.963415 0.788533 -2.246339 -14.050422 -0.116443 9.097396 25.278629 1.499322 2.227068 7.911259 0.768500 -5.597700 -15.621500 7.949306 11.316760 -8.957302 2.173516 -6.079212 16.764707 4.334366 -14.628190 4.916658 -1.029400 6.453900 -18.107100 4.069443 2.085347 3.193138 -0.050320 1.609025 -4.369932 -11.541252 2.444316 -8.580140 -6.047700 1.182200 -2.638200 -69.946167 15.715759 41.596342 33.698510 -42.896329 -16.901999 0.902093 -1.609717 0.789456 -7.125000 0.000000 0.000000 70.671756 -13.081326 21.125133 -105.270293 54.776706 -76.717430 0.037678 0.054771 9.499347 7.125000 0.000000 0.000000 
